<mxfile host="app.diagrams.net" agent="Mozilla/5.0 (Windows NT 10.0; Win64; x64; rv:134.0) Gecko/20100101 Firefox/134.0" version="26.0.6">
  <diagram name="Page-1" id="e7e014a7-5840-1c2e-5031-d8a46d1fe8dd">
    <mxGraphModel dx="2868" dy="1492" grid="1" gridSize="10" guides="1" tooltips="1" connect="1" arrows="1" fold="1" page="1" pageScale="1" pageWidth="1169" pageHeight="826" background="none" math="0" shadow="0">
      <root>
        <mxCell id="0" />
        <mxCell id="1" parent="0" />
        <mxCell id="3" value="rescuePrincess" style="swimlane;whiteSpace=wrap" parent="1" vertex="1">
          <mxGeometry x="730" y="110" width="940" height="1050" as="geometry" />
        </mxCell>
        <mxCell id="22" value="" style="edgeStyle=elbowEdgeStyle;elbow=horizontal;align=left;verticalAlign=bottom;endArrow=open;endSize=8;exitX=1;exitY=0.5;endFill=1;rounded=0;entryX=0.5;entryY=0;entryDx=0;entryDy=0;exitDx=0;exitDy=0;" parent="3" source="_Sj6H3lR2v7R7_RWuAPX-46" target="_Sj6H3lR2v7R7_RWuAPX-320" edge="1">
          <mxGeometry x="-1" relative="1" as="geometry">
            <mxPoint x="322.5" y="217" as="targetPoint" />
            <Array as="points">
              <mxPoint x="453.5" y="150" />
            </Array>
            <mxPoint x="202.5" y="230" as="sourcePoint" />
          </mxGeometry>
        </mxCell>
        <mxCell id="_Sj6H3lR2v7R7_RWuAPX-50" value="false" style="edgeLabel;html=1;align=center;verticalAlign=middle;resizable=0;points=[];" vertex="1" connectable="0" parent="22">
          <mxGeometry x="0.2669" relative="1" as="geometry">
            <mxPoint x="-10" as="offset" />
          </mxGeometry>
        </mxCell>
        <mxCell id="_Sj6H3lR2v7R7_RWuAPX-46" value="&#xa;&#xa;&#xa;ladder is&#xa;up&#xa;&#xa;&#xa;" style="rhombus;fontSize=9;" vertex="1" parent="3">
          <mxGeometry x="282.5" y="121" width="80" height="40" as="geometry" />
        </mxCell>
        <mxCell id="_Sj6H3lR2v7R7_RWuAPX-51" value="" style="edgeStyle=elbowEdgeStyle;elbow=horizontal;align=left;verticalAlign=bottom;endArrow=open;endSize=8;exitX=0;exitY=0.5;endFill=1;rounded=0;exitDx=0;exitDy=0;entryX=0.5;entryY=0;entryDx=0;entryDy=0;" edge="1" parent="3" source="_Sj6H3lR2v7R7_RWuAPX-46" target="_Sj6H3lR2v7R7_RWuAPX-321">
          <mxGeometry x="-1" relative="1" as="geometry">
            <mxPoint x="222.5" y="141" as="targetPoint" />
            <Array as="points">
              <mxPoint x="188.5" y="140" />
            </Array>
            <mxPoint x="-27.5" y="109" as="sourcePoint" />
          </mxGeometry>
        </mxCell>
        <mxCell id="_Sj6H3lR2v7R7_RWuAPX-52" value="&lt;div&gt;true&lt;/div&gt;" style="edgeLabel;html=1;align=center;verticalAlign=middle;resizable=0;points=[];" vertex="1" connectable="0" parent="_Sj6H3lR2v7R7_RWuAPX-51">
          <mxGeometry x="0.2669" relative="1" as="geometry">
            <mxPoint x="3" as="offset" />
          </mxGeometry>
        </mxCell>
        <mxCell id="_Sj6H3lR2v7R7_RWuAPX-70" value="" style="ellipse;shape=startState;fillColor=#000000;strokeColor=#000000;" vertex="1" parent="3">
          <mxGeometry x="307.5" y="50" width="30" height="30" as="geometry" />
        </mxCell>
        <mxCell id="_Sj6H3lR2v7R7_RWuAPX-320" value="step towards GB_e" style="rounded=1;fontSize=11;" vertex="1" parent="3">
          <mxGeometry x="398.5" y="170" width="110" height="50" as="geometry" />
        </mxCell>
        <mxCell id="_Sj6H3lR2v7R7_RWuAPX-321" value="step towards ladder" style="rounded=1;fontSize=11;" vertex="1" parent="3">
          <mxGeometry x="133.5" y="170" width="110" height="50" as="geometry" />
        </mxCell>
        <mxCell id="_Sj6H3lR2v7R7_RWuAPX-322" value="&#xa;ladder is&#xa;up&#xa;" style="rhombus;fontSize=9;" vertex="1" parent="3">
          <mxGeometry x="148.5" y="260" width="80" height="40" as="geometry" />
        </mxCell>
        <mxCell id="_Sj6H3lR2v7R7_RWuAPX-323" value="&#xa;ladder is&#xa;up&#xa;" style="rhombus;fontSize=9;" vertex="1" parent="3">
          <mxGeometry x="413.5" y="290" width="80" height="40" as="geometry" />
        </mxCell>
        <mxCell id="_Sj6H3lR2v7R7_RWuAPX-329" value="ladder&#xa;reached" style="rhombus;fontSize=9;" vertex="1" parent="3">
          <mxGeometry x="148.5" y="360" width="80" height="40" as="geometry" />
        </mxCell>
        <mxCell id="_Sj6H3lR2v7R7_RWuAPX-332" value="" style="edgeStyle=elbowEdgeStyle;elbow=horizontal;align=left;verticalAlign=bottom;endArrow=open;endSize=8;exitX=1;exitY=0.5;endFill=1;rounded=0;exitDx=0;exitDy=0;entryX=0;entryY=0.5;entryDx=0;entryDy=0;" edge="1" parent="3" source="_Sj6H3lR2v7R7_RWuAPX-322" target="_Sj6H3lR2v7R7_RWuAPX-320">
          <mxGeometry x="-1" relative="1" as="geometry">
            <mxPoint x="403.5" y="250" as="targetPoint" />
            <Array as="points">
              <mxPoint x="348.5" y="240" />
            </Array>
            <mxPoint x="228.5" y="250" as="sourcePoint" />
          </mxGeometry>
        </mxCell>
        <mxCell id="_Sj6H3lR2v7R7_RWuAPX-333" value="false" style="edgeLabel;html=1;align=center;verticalAlign=middle;resizable=0;points=[];" vertex="1" connectable="0" parent="_Sj6H3lR2v7R7_RWuAPX-332">
          <mxGeometry x="0.2669" relative="1" as="geometry">
            <mxPoint y="61" as="offset" />
          </mxGeometry>
        </mxCell>
        <mxCell id="_Sj6H3lR2v7R7_RWuAPX-337" value="" style="edgeStyle=elbowEdgeStyle;elbow=vertical;align=left;verticalAlign=bottom;endArrow=open;endSize=8;exitX=0.5;exitY=1;endFill=1;rounded=0;exitDx=0;exitDy=0;entryX=0.5;entryY=0;entryDx=0;entryDy=0;" edge="1" parent="3" source="_Sj6H3lR2v7R7_RWuAPX-322" target="_Sj6H3lR2v7R7_RWuAPX-329">
          <mxGeometry x="-1" relative="1" as="geometry">
            <mxPoint x="422.5" y="199" as="targetPoint" />
            <Array as="points" />
            <mxPoint x="238.5" y="290" as="sourcePoint" />
          </mxGeometry>
        </mxCell>
        <mxCell id="_Sj6H3lR2v7R7_RWuAPX-338" value="true" style="edgeLabel;html=1;align=center;verticalAlign=middle;resizable=0;points=[];" vertex="1" connectable="0" parent="_Sj6H3lR2v7R7_RWuAPX-337">
          <mxGeometry x="0.2669" relative="1" as="geometry">
            <mxPoint y="-14" as="offset" />
          </mxGeometry>
        </mxCell>
        <mxCell id="_Sj6H3lR2v7R7_RWuAPX-341" value="" style="edgeStyle=elbowEdgeStyle;elbow=horizontal;verticalAlign=bottom;endArrow=open;endSize=8;endFill=1;rounded=0;exitX=0.5;exitY=1;exitDx=0;exitDy=0;entryX=0.5;entryY=0;entryDx=0;entryDy=0;" edge="1" parent="3" source="_Sj6H3lR2v7R7_RWuAPX-70" target="_Sj6H3lR2v7R7_RWuAPX-46">
          <mxGeometry x="-75" y="-108" as="geometry">
            <mxPoint x="322.15999999999985" y="121" as="targetPoint" />
            <mxPoint x="322.15999999999985" y="81" as="sourcePoint" />
          </mxGeometry>
        </mxCell>
        <mxCell id="_Sj6H3lR2v7R7_RWuAPX-342" value="" style="edgeStyle=elbowEdgeStyle;elbow=horizontal;verticalAlign=bottom;endArrow=open;endSize=8;endFill=1;rounded=0;exitX=0.5;exitY=1;exitDx=0;exitDy=0;entryX=0.5;entryY=0;entryDx=0;entryDy=0;" edge="1" parent="3" source="_Sj6H3lR2v7R7_RWuAPX-321" target="_Sj6H3lR2v7R7_RWuAPX-322">
          <mxGeometry x="-75" y="-108" as="geometry">
            <mxPoint x="188.19000000000005" y="260" as="targetPoint" />
            <mxPoint x="188.19000000000005" y="220" as="sourcePoint" />
          </mxGeometry>
        </mxCell>
        <mxCell id="_Sj6H3lR2v7R7_RWuAPX-343" value="" style="edgeStyle=elbowEdgeStyle;elbow=horizontal;verticalAlign=bottom;endArrow=open;endSize=8;endFill=1;rounded=0;entryX=0.5;entryY=0;entryDx=0;entryDy=0;exitX=0.5;exitY=1;exitDx=0;exitDy=0;" edge="1" parent="3" source="_Sj6H3lR2v7R7_RWuAPX-320" target="_Sj6H3lR2v7R7_RWuAPX-323">
          <mxGeometry x="-75" y="-108" as="geometry">
            <mxPoint x="453.15999999999985" y="251" as="targetPoint" />
            <mxPoint x="453.5" y="230" as="sourcePoint" />
          </mxGeometry>
        </mxCell>
        <mxCell id="_Sj6H3lR2v7R7_RWuAPX-345" value="" style="edgeStyle=elbowEdgeStyle;elbow=horizontal;align=left;verticalAlign=bottom;endArrow=open;endSize=8;endFill=1;rounded=0;exitX=0.5;exitY=1;exitDx=0;exitDy=0;entryX=0.5;entryY=0;entryDx=0;entryDy=0;" edge="1" parent="3" source="_Sj6H3lR2v7R7_RWuAPX-323" target="_Sj6H3lR2v7R7_RWuAPX-347">
          <mxGeometry x="-1" relative="1" as="geometry">
            <mxPoint x="453.5" y="360" as="targetPoint" />
            <Array as="points" />
            <mxPoint x="453.19000000000005" y="330" as="sourcePoint" />
          </mxGeometry>
        </mxCell>
        <mxCell id="_Sj6H3lR2v7R7_RWuAPX-346" value="&lt;div&gt;false&lt;/div&gt;" style="edgeLabel;html=1;align=center;verticalAlign=middle;resizable=0;points=[];" vertex="1" connectable="0" parent="_Sj6H3lR2v7R7_RWuAPX-345">
          <mxGeometry x="0.2669" relative="1" as="geometry">
            <mxPoint as="offset" />
          </mxGeometry>
        </mxCell>
        <mxCell id="_Sj6H3lR2v7R7_RWuAPX-347" value="GB_e&#xa;reached" style="rhombus;fontSize=9;" vertex="1" parent="3">
          <mxGeometry x="413.5" y="390" width="80" height="40" as="geometry" />
        </mxCell>
        <mxCell id="_Sj6H3lR2v7R7_RWuAPX-349" value="" style="edgeStyle=elbowEdgeStyle;elbow=horizontal;align=left;verticalAlign=bottom;endArrow=open;endSize=8;endFill=1;rounded=0;exitX=0;exitY=0.5;exitDx=0;exitDy=0;entryX=1;entryY=0.5;entryDx=0;entryDy=0;" edge="1" parent="3" source="_Sj6H3lR2v7R7_RWuAPX-323" target="_Sj6H3lR2v7R7_RWuAPX-321">
          <mxGeometry x="-1" relative="1" as="geometry">
            <mxPoint x="258.5" y="310" as="targetPoint" />
            <Array as="points">
              <mxPoint x="288.5" y="260" />
            </Array>
            <mxPoint x="413.5" y="309.65999999999997" as="sourcePoint" />
          </mxGeometry>
        </mxCell>
        <mxCell id="_Sj6H3lR2v7R7_RWuAPX-350" value="true" style="edgeLabel;html=1;align=center;verticalAlign=middle;resizable=0;points=[];" vertex="1" connectable="0" parent="_Sj6H3lR2v7R7_RWuAPX-349">
          <mxGeometry x="0.2669" relative="1" as="geometry">
            <mxPoint x="10" y="56" as="offset" />
          </mxGeometry>
        </mxCell>
        <mxCell id="_Sj6H3lR2v7R7_RWuAPX-351" value="" style="edgeStyle=elbowEdgeStyle;elbow=horizontal;align=left;verticalAlign=bottom;endArrow=open;endSize=8;endFill=1;rounded=0;exitX=0;exitY=0.5;exitDx=0;exitDy=0;entryX=0;entryY=0.5;entryDx=0;entryDy=0;" edge="1" parent="3" source="_Sj6H3lR2v7R7_RWuAPX-329" target="_Sj6H3lR2v7R7_RWuAPX-321">
          <mxGeometry x="-1" relative="1" as="geometry">
            <mxPoint x="463.5" y="400" as="targetPoint" />
            <Array as="points">
              <mxPoint x="78.5" y="280" />
            </Array>
            <mxPoint x="463.5" y="340" as="sourcePoint" />
          </mxGeometry>
        </mxCell>
        <mxCell id="_Sj6H3lR2v7R7_RWuAPX-352" value="&lt;div&gt;false&lt;/div&gt;" style="edgeLabel;html=1;align=center;verticalAlign=middle;resizable=0;points=[];" vertex="1" connectable="0" parent="_Sj6H3lR2v7R7_RWuAPX-351">
          <mxGeometry x="0.2669" relative="1" as="geometry">
            <mxPoint y="7" as="offset" />
          </mxGeometry>
        </mxCell>
        <mxCell id="_Sj6H3lR2v7R7_RWuAPX-353" value="" style="edgeStyle=elbowEdgeStyle;elbow=horizontal;align=left;verticalAlign=bottom;endArrow=open;endSize=8;endFill=1;rounded=0;exitX=1;exitY=0.5;exitDx=0;exitDy=0;entryX=1;entryY=0.5;entryDx=0;entryDy=0;" edge="1" parent="3" source="_Sj6H3lR2v7R7_RWuAPX-347" target="_Sj6H3lR2v7R7_RWuAPX-320">
          <mxGeometry x="-1" relative="1" as="geometry">
            <mxPoint x="473.5" y="410" as="targetPoint" />
            <Array as="points">
              <mxPoint x="538.5" y="300" />
            </Array>
            <mxPoint x="473.5" y="350" as="sourcePoint" />
          </mxGeometry>
        </mxCell>
        <mxCell id="_Sj6H3lR2v7R7_RWuAPX-354" value="&lt;div&gt;false&lt;/div&gt;" style="edgeLabel;html=1;align=center;verticalAlign=middle;resizable=0;points=[];" vertex="1" connectable="0" parent="_Sj6H3lR2v7R7_RWuAPX-353">
          <mxGeometry x="0.2669" relative="1" as="geometry">
            <mxPoint y="18" as="offset" />
          </mxGeometry>
        </mxCell>
        <mxCell id="_Sj6H3lR2v7R7_RWuAPX-355" value="&#xa;gate is&#xa;broken&#xa;" style="rhombus;fontSize=9;" vertex="1" parent="3">
          <mxGeometry x="413.5" y="480" width="80" height="40" as="geometry" />
        </mxCell>
        <mxCell id="_Sj6H3lR2v7R7_RWuAPX-356" value="" style="edgeStyle=elbowEdgeStyle;elbow=vertical;align=left;verticalAlign=bottom;endArrow=open;endSize=8;exitX=0.5;exitY=1;endFill=1;rounded=0;exitDx=0;exitDy=0;entryX=0.5;entryY=0;entryDx=0;entryDy=0;" edge="1" parent="3" source="_Sj6H3lR2v7R7_RWuAPX-347" target="_Sj6H3lR2v7R7_RWuAPX-355">
          <mxGeometry x="-1" relative="1" as="geometry">
            <mxPoint x="453.1600000000001" y="490" as="targetPoint" />
            <Array as="points" />
            <mxPoint x="453.1600000000001" y="430" as="sourcePoint" />
          </mxGeometry>
        </mxCell>
        <mxCell id="_Sj6H3lR2v7R7_RWuAPX-357" value="true" style="edgeLabel;html=1;align=center;verticalAlign=middle;resizable=0;points=[];" vertex="1" connectable="0" parent="_Sj6H3lR2v7R7_RWuAPX-356">
          <mxGeometry x="0.2669" relative="1" as="geometry">
            <mxPoint y="-14" as="offset" />
          </mxGeometry>
        </mxCell>
        <mxCell id="_Sj6H3lR2v7R7_RWuAPX-361" value="&#xa;ladder is&#xa;up&#xa;" style="rhombus;fontSize=9;" vertex="1" parent="3">
          <mxGeometry x="282.5" y="480" width="80" height="40" as="geometry" />
        </mxCell>
        <mxCell id="_Sj6H3lR2v7R7_RWuAPX-362" value="" style="edgeStyle=elbowEdgeStyle;elbow=horizontal;align=left;verticalAlign=bottom;endArrow=open;endSize=8;endFill=1;rounded=0;exitX=0;exitY=0.5;exitDx=0;exitDy=0;entryX=1;entryY=0.5;entryDx=0;entryDy=0;" edge="1" parent="3" source="_Sj6H3lR2v7R7_RWuAPX-355" target="_Sj6H3lR2v7R7_RWuAPX-361">
          <mxGeometry x="-1" relative="1" as="geometry">
            <mxPoint x="463.5" y="400" as="targetPoint" />
            <Array as="points" />
            <mxPoint x="463.5" y="340" as="sourcePoint" />
          </mxGeometry>
        </mxCell>
        <mxCell id="_Sj6H3lR2v7R7_RWuAPX-363" value="&lt;div&gt;false&lt;/div&gt;" style="edgeLabel;html=1;align=center;verticalAlign=middle;resizable=0;points=[];" vertex="1" connectable="0" parent="_Sj6H3lR2v7R7_RWuAPX-362">
          <mxGeometry x="0.2669" relative="1" as="geometry">
            <mxPoint as="offset" />
          </mxGeometry>
        </mxCell>
        <mxCell id="_Sj6H3lR2v7R7_RWuAPX-364" value="" style="edgeStyle=elbowEdgeStyle;elbow=horizontal;align=left;verticalAlign=bottom;endArrow=open;endSize=8;endFill=1;rounded=0;exitX=0.5;exitY=0;exitDx=0;exitDy=0;entryX=1;entryY=0.5;entryDx=0;entryDy=0;" edge="1" parent="3" source="_Sj6H3lR2v7R7_RWuAPX-361" target="_Sj6H3lR2v7R7_RWuAPX-321">
          <mxGeometry x="-1" relative="1" as="geometry">
            <mxPoint x="253.5" y="205" as="targetPoint" />
            <Array as="points">
              <mxPoint x="322.5" y="340" />
            </Array>
            <mxPoint x="423.5" y="320" as="sourcePoint" />
          </mxGeometry>
        </mxCell>
        <mxCell id="_Sj6H3lR2v7R7_RWuAPX-365" value="true" style="edgeLabel;html=1;align=center;verticalAlign=middle;resizable=0;points=[];" vertex="1" connectable="0" parent="_Sj6H3lR2v7R7_RWuAPX-364">
          <mxGeometry x="0.2669" relative="1" as="geometry">
            <mxPoint y="136" as="offset" />
          </mxGeometry>
        </mxCell>
        <mxCell id="_Sj6H3lR2v7R7_RWuAPX-366" value="" style="edgeStyle=elbowEdgeStyle;elbow=horizontal;align=left;verticalAlign=bottom;endArrow=open;endSize=8;endFill=1;rounded=0;exitX=0.5;exitY=1;exitDx=0;exitDy=0;entryX=0.5;entryY=1;entryDx=0;entryDy=0;" edge="1" parent="3" source="_Sj6H3lR2v7R7_RWuAPX-361" target="_Sj6H3lR2v7R7_RWuAPX-355">
          <mxGeometry x="-1" relative="1" as="geometry">
            <mxPoint x="372.5" y="510" as="targetPoint" />
            <Array as="points">
              <mxPoint x="388.5" y="540" />
            </Array>
            <mxPoint x="423.5" y="510" as="sourcePoint" />
          </mxGeometry>
        </mxCell>
        <mxCell id="_Sj6H3lR2v7R7_RWuAPX-367" value="&lt;div&gt;false&lt;/div&gt;" style="edgeLabel;html=1;align=center;verticalAlign=middle;resizable=0;points=[];" vertex="1" connectable="0" parent="_Sj6H3lR2v7R7_RWuAPX-366">
          <mxGeometry x="0.2669" relative="1" as="geometry">
            <mxPoint as="offset" />
          </mxGeometry>
        </mxCell>
        <mxCell id="_Sj6H3lR2v7R7_RWuAPX-368" value="step towards C_bridge" style="rounded=1;fontSize=11;" vertex="1" parent="3">
          <mxGeometry x="160" y="770" width="110" height="50" as="geometry" />
        </mxCell>
        <mxCell id="_Sj6H3lR2v7R7_RWuAPX-369" value="bridge or land?" style="rhombus;fontSize=9;" vertex="1" parent="3">
          <mxGeometry x="280" y="630" width="80" height="40" as="geometry" />
        </mxCell>
        <mxCell id="_Sj6H3lR2v7R7_RWuAPX-370" value="step towards C_land" style="rounded=1;fontSize=11;" vertex="1" parent="3">
          <mxGeometry x="375" y="770" width="110" height="50" as="geometry" />
        </mxCell>
        <mxCell id="_Sj6H3lR2v7R7_RWuAPX-371" value="" style="edgeStyle=elbowEdgeStyle;elbow=horizontal;align=left;verticalAlign=bottom;endArrow=open;endSize=8;endFill=1;rounded=0;entryX=0.5;entryY=0;entryDx=0;entryDy=0;exitX=1;exitY=0.5;exitDx=0;exitDy=0;" edge="1" parent="3" source="_Sj6H3lR2v7R7_RWuAPX-369" target="_Sj6H3lR2v7R7_RWuAPX-370">
          <mxGeometry x="-1" relative="1" as="geometry">
            <mxPoint x="430" y="695" as="targetPoint" />
            <Array as="points">
              <mxPoint x="430" y="668" />
            </Array>
            <mxPoint x="375" y="649.5" as="sourcePoint" />
          </mxGeometry>
        </mxCell>
        <mxCell id="_Sj6H3lR2v7R7_RWuAPX-372" value="land" style="edgeLabel;html=1;align=center;verticalAlign=middle;resizable=0;points=[];" vertex="1" connectable="0" parent="_Sj6H3lR2v7R7_RWuAPX-371">
          <mxGeometry x="0.2669" relative="1" as="geometry">
            <mxPoint x="-17" y="-4" as="offset" />
          </mxGeometry>
        </mxCell>
        <mxCell id="_Sj6H3lR2v7R7_RWuAPX-373" value="" style="edgeStyle=elbowEdgeStyle;elbow=horizontal;align=left;verticalAlign=bottom;endArrow=open;endSize=8;endFill=1;rounded=0;entryX=0.5;entryY=0;entryDx=0;entryDy=0;exitX=0;exitY=0.5;exitDx=0;exitDy=0;" edge="1" parent="3" source="_Sj6H3lR2v7R7_RWuAPX-369" target="_Sj6H3lR2v7R7_RWuAPX-368">
          <mxGeometry x="-1" relative="1" as="geometry">
            <mxPoint x="455" y="705" as="targetPoint" />
            <Array as="points">
              <mxPoint x="215" y="678" />
            </Array>
            <mxPoint x="370" y="660" as="sourcePoint" />
          </mxGeometry>
        </mxCell>
        <mxCell id="_Sj6H3lR2v7R7_RWuAPX-374" value="bridge" style="edgeLabel;html=1;align=center;verticalAlign=middle;resizable=0;points=[];" vertex="1" connectable="0" parent="_Sj6H3lR2v7R7_RWuAPX-373">
          <mxGeometry x="0.2669" relative="1" as="geometry">
            <mxPoint x="18" y="-4" as="offset" />
          </mxGeometry>
        </mxCell>
        <mxCell id="_Sj6H3lR2v7R7_RWuAPX-375" value="" style="edgeStyle=elbowEdgeStyle;elbow=vertical;align=left;verticalAlign=bottom;endArrow=open;endSize=8;endFill=1;rounded=0;entryX=0.5;entryY=0;entryDx=0;entryDy=0;exitX=0.5;exitY=1;exitDx=0;exitDy=0;" edge="1" parent="3" source="_Sj6H3lR2v7R7_RWuAPX-329" target="_Sj6H3lR2v7R7_RWuAPX-369">
          <mxGeometry x="-1" relative="1" as="geometry">
            <mxPoint x="178.49999999999997" y="490" as="targetPoint" />
            <Array as="points">
              <mxPoint x="248.5" y="560" />
            </Array>
            <mxPoint x="178.84" y="430" as="sourcePoint" />
          </mxGeometry>
        </mxCell>
        <mxCell id="_Sj6H3lR2v7R7_RWuAPX-376" value="true" style="edgeLabel;html=1;align=center;verticalAlign=middle;resizable=0;points=[];" vertex="1" connectable="0" parent="_Sj6H3lR2v7R7_RWuAPX-375">
          <mxGeometry x="0.2669" relative="1" as="geometry">
            <mxPoint as="offset" />
          </mxGeometry>
        </mxCell>
        <mxCell id="_Sj6H3lR2v7R7_RWuAPX-377" value="" style="edgeStyle=elbowEdgeStyle;elbow=vertical;align=left;verticalAlign=bottom;endArrow=open;endSize=8;endFill=1;rounded=0;exitX=1;exitY=0.5;exitDx=0;exitDy=0;entryX=0.5;entryY=0;entryDx=0;entryDy=0;" edge="1" parent="3" source="_Sj6H3lR2v7R7_RWuAPX-355" target="_Sj6H3lR2v7R7_RWuAPX-369">
          <mxGeometry x="-1" relative="1" as="geometry">
            <mxPoint x="348.5" y="590" as="targetPoint" />
            <Array as="points">
              <mxPoint x="408.5" y="560" />
            </Array>
            <mxPoint x="198.5" y="410" as="sourcePoint" />
          </mxGeometry>
        </mxCell>
        <mxCell id="_Sj6H3lR2v7R7_RWuAPX-378" value="true" style="edgeLabel;html=1;align=center;verticalAlign=middle;resizable=0;points=[];" vertex="1" connectable="0" parent="_Sj6H3lR2v7R7_RWuAPX-377">
          <mxGeometry x="0.2669" relative="1" as="geometry">
            <mxPoint x="37" as="offset" />
          </mxGeometry>
        </mxCell>
        <mxCell id="_Sj6H3lR2v7R7_RWuAPX-384" value="&#xa;fall from bridge&#xa;" style="rhombus;fontSize=9;" vertex="1" parent="3">
          <mxGeometry x="175.5" y="865" width="80" height="40" as="geometry" />
        </mxCell>
        <mxCell id="_Sj6H3lR2v7R7_RWuAPX-394" value="" style="edgeStyle=elbowEdgeStyle;elbow=horizontal;verticalAlign=bottom;endArrow=open;endSize=8;endFill=1;rounded=0;exitX=0.5;exitY=1;exitDx=0;exitDy=0;entryX=0.5;entryY=0;entryDx=0;entryDy=0;" edge="1" parent="3" source="_Sj6H3lR2v7R7_RWuAPX-368" target="_Sj6H3lR2v7R7_RWuAPX-384">
          <mxGeometry x="-830" y="-218" as="geometry">
            <mxPoint x="213.24" y="865" as="targetPoint" />
            <mxPoint x="213.24" y="825" as="sourcePoint" />
          </mxGeometry>
        </mxCell>
        <mxCell id="_Sj6H3lR2v7R7_RWuAPX-395" value="C_bridge &#xa;reached" style="rhombus;fontSize=9;" vertex="1" parent="3">
          <mxGeometry x="175.5" y="990.5" width="80" height="40" as="geometry" />
        </mxCell>
        <mxCell id="_Sj6H3lR2v7R7_RWuAPX-396" value="C_land&#xa;reached" style="rhombus;fontSize=9;" vertex="1" parent="3">
          <mxGeometry x="390" y="917.75" width="80" height="40" as="geometry" />
        </mxCell>
        <mxCell id="_Sj6H3lR2v7R7_RWuAPX-397" value="" style="edgeStyle=elbowEdgeStyle;elbow=horizontal;align=left;verticalAlign=bottom;endArrow=open;endSize=8;endFill=1;rounded=0;exitX=0.5;exitY=1;exitDx=0;exitDy=0;entryX=0.5;entryY=0;entryDx=0;entryDy=0;" edge="1" parent="3" target="_Sj6H3lR2v7R7_RWuAPX-395" source="_Sj6H3lR2v7R7_RWuAPX-384">
          <mxGeometry x="-1" relative="1" as="geometry">
            <mxPoint x="245.25" y="990.5" as="targetPoint" />
            <Array as="points" />
            <mxPoint x="215.5" y="905" as="sourcePoint" />
          </mxGeometry>
        </mxCell>
        <mxCell id="_Sj6H3lR2v7R7_RWuAPX-398" value="false" style="edgeLabel;html=1;align=center;verticalAlign=middle;resizable=0;points=[];" vertex="1" connectable="0" parent="_Sj6H3lR2v7R7_RWuAPX-397">
          <mxGeometry x="0.2669" relative="1" as="geometry">
            <mxPoint x="-17" as="offset" />
          </mxGeometry>
        </mxCell>
        <mxCell id="_Sj6H3lR2v7R7_RWuAPX-399" value="" style="edgeStyle=elbowEdgeStyle;elbow=horizontal;align=left;verticalAlign=bottom;endArrow=open;endSize=8;endFill=1;rounded=0;entryX=0.5;entryY=0;entryDx=0;entryDy=0;exitX=0.5;exitY=1;exitDx=0;exitDy=0;" edge="1" parent="3" target="_Sj6H3lR2v7R7_RWuAPX-396" source="_Sj6H3lR2v7R7_RWuAPX-370">
          <mxGeometry x="-1" relative="1" as="geometry">
            <mxPoint x="415" y="927.75" as="targetPoint" />
            <Array as="points" />
            <mxPoint x="430" y="812.25" as="sourcePoint" />
          </mxGeometry>
        </mxCell>
        <mxCell id="_Sj6H3lR2v7R7_RWuAPX-388" value="" style="ellipse;html=1;shape=endState;fillColor=#000000;strokeColor=#ff0000;" vertex="1" parent="3">
          <mxGeometry x="98.5" y="940" width="30" height="30" as="geometry" />
        </mxCell>
        <mxCell id="_Sj6H3lR2v7R7_RWuAPX-392" value="" style="edgeStyle=elbowEdgeStyle;elbow=vertical;align=left;verticalAlign=bottom;endArrow=open;endSize=8;endFill=1;rounded=0;entryX=0.5;entryY=0;entryDx=0;entryDy=0;exitX=0;exitY=0.5;exitDx=0;exitDy=0;" edge="1" parent="3" source="_Sj6H3lR2v7R7_RWuAPX-384" target="_Sj6H3lR2v7R7_RWuAPX-388">
          <mxGeometry x="-1" relative="1" as="geometry">
            <mxPoint x="200.5" y="1050" as="targetPoint" />
            <Array as="points">
              <mxPoint x="118.5" y="885" />
            </Array>
            <mxPoint x="68.5" y="820" as="sourcePoint" />
          </mxGeometry>
        </mxCell>
        <mxCell id="_Sj6H3lR2v7R7_RWuAPX-393" value="true" style="edgeLabel;html=1;align=center;verticalAlign=middle;resizable=0;points=[];" vertex="1" connectable="0" parent="_Sj6H3lR2v7R7_RWuAPX-392">
          <mxGeometry x="0.2669" relative="1" as="geometry">
            <mxPoint as="offset" />
          </mxGeometry>
        </mxCell>
        <mxCell id="_Sj6H3lR2v7R7_RWuAPX-401" value="" style="edgeStyle=elbowEdgeStyle;elbow=horizontal;align=left;verticalAlign=bottom;endArrow=open;endSize=8;endFill=1;rounded=0;exitX=0;exitY=0.5;exitDx=0;exitDy=0;entryX=0;entryY=0.5;entryDx=0;entryDy=0;" edge="1" parent="3" source="_Sj6H3lR2v7R7_RWuAPX-395" target="_Sj6H3lR2v7R7_RWuAPX-368">
          <mxGeometry x="-1" relative="1" as="geometry">
            <mxPoint x="78.5" y="1076.5" as="targetPoint" />
            <Array as="points">
              <mxPoint x="58.5" y="880" />
            </Array>
            <mxPoint x="78.5" y="990.5" as="sourcePoint" />
          </mxGeometry>
        </mxCell>
        <mxCell id="_Sj6H3lR2v7R7_RWuAPX-402" value="false" style="edgeLabel;html=1;align=center;verticalAlign=middle;resizable=0;points=[];" vertex="1" connectable="0" parent="_Sj6H3lR2v7R7_RWuAPX-401">
          <mxGeometry x="0.2669" relative="1" as="geometry">
            <mxPoint x="-17" as="offset" />
          </mxGeometry>
        </mxCell>
        <mxCell id="_Sj6H3lR2v7R7_RWuAPX-403" value="" style="edgeStyle=elbowEdgeStyle;elbow=horizontal;align=left;verticalAlign=bottom;endArrow=open;endSize=8;endFill=1;rounded=0;exitX=1;exitY=0.5;exitDx=0;exitDy=0;entryX=1;entryY=0.5;entryDx=0;entryDy=0;" edge="1" parent="3" source="_Sj6H3lR2v7R7_RWuAPX-396" target="_Sj6H3lR2v7R7_RWuAPX-370">
          <mxGeometry x="-1" relative="1" as="geometry">
            <mxPoint x="170.5" y="805" as="targetPoint" />
            <Array as="points">
              <mxPoint x="538.5" y="850" />
            </Array>
            <mxPoint x="185.5" y="1021" as="sourcePoint" />
          </mxGeometry>
        </mxCell>
        <mxCell id="_Sj6H3lR2v7R7_RWuAPX-404" value="false" style="edgeLabel;html=1;align=center;verticalAlign=middle;resizable=0;points=[];" vertex="1" connectable="0" parent="_Sj6H3lR2v7R7_RWuAPX-403">
          <mxGeometry x="0.2669" relative="1" as="geometry">
            <mxPoint x="-17" as="offset" />
          </mxGeometry>
        </mxCell>
        <mxCell id="_Sj6H3lR2v7R7_RWuAPX-405" value="" style="edgeStyle=elbowEdgeStyle;elbow=vertical;align=left;verticalAlign=bottom;endArrow=open;endSize=8;exitX=1;exitY=0.5;endFill=1;rounded=0;exitDx=0;exitDy=0;entryX=0.5;entryY=1;entryDx=0;entryDy=0;" edge="1" parent="3" source="_Sj6H3lR2v7R7_RWuAPX-395" target="_Sj6H3lR2v7R7_RWuAPX-409">
          <mxGeometry x="-1" relative="1" as="geometry">
            <mxPoint x="778.5" y="1010" as="targetPoint" />
            <Array as="points">
              <mxPoint x="508.5" y="1011" />
            </Array>
            <mxPoint x="361.6700000000001" y="980.5" as="sourcePoint" />
          </mxGeometry>
        </mxCell>
        <mxCell id="_Sj6H3lR2v7R7_RWuAPX-406" value="true" style="edgeLabel;html=1;align=center;verticalAlign=middle;resizable=0;points=[];" vertex="1" connectable="0" parent="_Sj6H3lR2v7R7_RWuAPX-405">
          <mxGeometry x="0.2669" relative="1" as="geometry">
            <mxPoint y="-14" as="offset" />
          </mxGeometry>
        </mxCell>
        <mxCell id="_Sj6H3lR2v7R7_RWuAPX-407" value="" style="edgeStyle=elbowEdgeStyle;elbow=vertical;align=left;verticalAlign=bottom;endArrow=open;endSize=8;exitX=0.5;exitY=1;endFill=1;rounded=0;exitDx=0;exitDy=0;entryX=0.5;entryY=1;entryDx=0;entryDy=0;" edge="1" parent="3" source="_Sj6H3lR2v7R7_RWuAPX-396" target="_Sj6H3lR2v7R7_RWuAPX-409">
          <mxGeometry x="-1" relative="1" as="geometry">
            <mxPoint x="678.5" y="970" as="targetPoint" />
            <Array as="points">
              <mxPoint x="678.5" y="980" />
            </Array>
            <mxPoint x="428.5" y="980" as="sourcePoint" />
          </mxGeometry>
        </mxCell>
        <mxCell id="_Sj6H3lR2v7R7_RWuAPX-408" value="true" style="edgeLabel;html=1;align=center;verticalAlign=middle;resizable=0;points=[];" vertex="1" connectable="0" parent="_Sj6H3lR2v7R7_RWuAPX-407">
          <mxGeometry x="0.2669" relative="1" as="geometry">
            <mxPoint y="-14" as="offset" />
          </mxGeometry>
        </mxCell>
        <mxCell id="_Sj6H3lR2v7R7_RWuAPX-409" value="step towards GB_a" style="rounded=1;fontSize=11;" vertex="1" parent="3">
          <mxGeometry x="718.5" y="867.75" width="110" height="50" as="geometry" />
        </mxCell>
        <mxCell id="_Sj6H3lR2v7R7_RWuAPX-410" value="GB_a&#xa;reached" style="rhombus;fontSize=9;" vertex="1" parent="3">
          <mxGeometry x="733.5" y="790" width="80" height="40" as="geometry" />
        </mxCell>
        <mxCell id="_Sj6H3lR2v7R7_RWuAPX-411" value="" style="edgeStyle=elbowEdgeStyle;elbow=horizontal;verticalAlign=bottom;endArrow=open;endSize=8;endFill=1;rounded=0;exitX=0.5;exitY=0;exitDx=0;exitDy=0;entryX=0.5;entryY=1;entryDx=0;entryDy=0;" edge="1" parent="3" source="_Sj6H3lR2v7R7_RWuAPX-409" target="_Sj6H3lR2v7R7_RWuAPX-410">
          <mxGeometry x="-830" y="-218" as="geometry">
            <mxPoint x="888.5" y="990.5" as="targetPoint" />
            <mxPoint x="888.5" y="949.5" as="sourcePoint" />
          </mxGeometry>
        </mxCell>
        <mxCell id="_Sj6H3lR2v7R7_RWuAPX-412" value="" style="edgeStyle=elbowEdgeStyle;elbow=vertical;align=left;verticalAlign=bottom;endArrow=open;endSize=8;endFill=1;rounded=0;exitX=0.5;exitY=0;exitDx=0;exitDy=0;entryX=0.5;entryY=1;entryDx=0;entryDy=0;" edge="1" parent="3" source="_Sj6H3lR2v7R7_RWuAPX-410" target="_Sj6H3lR2v7R7_RWuAPX-416">
          <mxGeometry x="-1" relative="1" as="geometry">
            <mxPoint x="773.5" y="700" as="targetPoint" />
            <Array as="points">
              <mxPoint x="758.5" y="740" />
            </Array>
            <mxPoint x="770.5" y="735" as="sourcePoint" />
          </mxGeometry>
        </mxCell>
        <mxCell id="_Sj6H3lR2v7R7_RWuAPX-413" value="true" style="edgeLabel;html=1;align=center;verticalAlign=middle;resizable=0;points=[];" vertex="1" connectable="0" parent="_Sj6H3lR2v7R7_RWuAPX-412">
          <mxGeometry x="0.2669" relative="1" as="geometry">
            <mxPoint as="offset" />
          </mxGeometry>
        </mxCell>
        <mxCell id="_Sj6H3lR2v7R7_RWuAPX-414" value="" style="edgeStyle=elbowEdgeStyle;elbow=horizontal;align=left;verticalAlign=bottom;endArrow=open;endSize=8;endFill=1;rounded=0;exitX=1;exitY=0.5;exitDx=0;exitDy=0;entryX=1;entryY=0.5;entryDx=0;entryDy=0;" edge="1" parent="3" source="_Sj6H3lR2v7R7_RWuAPX-410" target="_Sj6H3lR2v7R7_RWuAPX-409">
          <mxGeometry x="-1" relative="1" as="geometry">
            <mxPoint x="828.5" y="770" as="targetPoint" />
            <Array as="points">
              <mxPoint x="881.5" y="825" />
            </Array>
            <mxPoint x="813.5" y="913" as="sourcePoint" />
          </mxGeometry>
        </mxCell>
        <mxCell id="_Sj6H3lR2v7R7_RWuAPX-415" value="false" style="edgeLabel;html=1;align=center;verticalAlign=middle;resizable=0;points=[];" vertex="1" connectable="0" parent="_Sj6H3lR2v7R7_RWuAPX-414">
          <mxGeometry x="0.2669" relative="1" as="geometry">
            <mxPoint x="-3" y="-11" as="offset" />
          </mxGeometry>
        </mxCell>
        <mxCell id="_Sj6H3lR2v7R7_RWuAPX-416" value="" style="ellipse;html=1;shape=endState;fillColor=#000000;strokeColor=#11AB00;" vertex="1" parent="3">
          <mxGeometry x="758.5" y="670" width="30" height="30" as="geometry" />
        </mxCell>
      </root>
    </mxGraphModel>
  </diagram>
</mxfile>
